<?xml version="1.0"?>
<svg xmlns="http://www.w3.org/2000/svg" id="Layer_1" data-name="Layer 1" viewBox="0 0 512 512" width="512" height="512"><title>computer</title><path d="M73.559,369H193v70H166.111a7,7,0,0,0,0,14H351.152a7,7,0,1,0,0-14H319V369H438.441C458.428,369,475,352.91,475,332.923V95.246C475,75.26,458.428,59,438.441,59H73.559C53.572,59,37,75.26,37,95.246V332.923C37,352.91,53.572,369,73.559,369ZM305,439H207V369h98Zm133.441-84H73.559C61.292,355,51,345.19,51,332.923V313H461v19.923C461,345.19,450.708,355,438.441,355ZM73.559,73H438.441A22.541,22.541,0,0,1,461,95.246V299H51V95.246A22.541,22.541,0,0,1,73.559,73Z"/></svg>
