<?xml version="1.0"?>
<svg xmlns="http://www.w3.org/2000/svg" id="Layer_1" data-name="Layer 1" viewBox="0 0 512 512" width="512" height="512"><title>Service cogs</title><path d="M203.1,341.261A67.281,67.281,0,0,1,167.447,216.9a67.295,67.295,0,1,0,41.3,124.1C206.879,341.162,205,341.261,203.1,341.261Z" style="fill:#d4e1f4"/><path d="M42.253,310.005l23.323,2.248a109.723,109.723,0,0,0,11.66,27.708l-14.827,17.9a7,7,0,0,0,.442,9.415l26.92,26.92a7,7,0,0,0,9.415.441l17.945-14.861A111.9,111.9,0,0,0,144.8,391.47l2.248,23.327a7,7,0,0,0,6.968,6.328h38.165a7,7,0,0,0,6.968-6.328l2.248-23.323a109.718,109.718,0,0,0,27.708-11.66l17.9,14.827a7,7,0,0,0,9.415-.441l26.92-26.92a7,7,0,0,0,.442-9.415L268.92,339.919a111.933,111.933,0,0,0,11.692-27.671L303.6,310a7,7,0,0,0,6.321-6.966V264.873A7,7,0,0,0,303.6,257.9l-23.323-2.248a109.7,109.7,0,0,0-11.659-27.708l14.826-17.9a7,7,0,0,0-.41-9.383l-26.579-26.92a7,7,0,0,0-9.446-.473L229.06,188.13a111.931,111.931,0,0,0-27.666-11.69l-2.248-23.327a7,7,0,0,0-6.968-6.328H154.013a7,7,0,0,0-6.968,6.328L144.8,176.436A109.751,109.751,0,0,0,117.089,188.1l-17.9-14.826a7,7,0,0,0-9.415.441l-26.92,26.92a7,7,0,0,0-.442,9.415l14.862,17.946A111.88,111.88,0,0,0,65.58,255.657L42.253,257.9a7,7,0,0,0-6.328,6.968v38.165A7,7,0,0,0,42.253,310.005Zm7.672-38.775,21.954-2.116a7,7,0,0,0,6.171-5.488,98.1,98.1,0,0,1,13.693-32.442,7,7,0,0,0-.491-8.26l-14-16.9,17.908-17.907,16.9,14a7,7,0,0,0,8.348.432,95.1,95.1,0,0,1,32.354-13.634,7,7,0,0,0,5.488-6.171l2.117-21.954H185.82l2.116,21.954a7,7,0,0,0,5.488,6.171A98.1,98.1,0,0,1,225.867,202.6a7,7,0,0,0,8.259-.491L251,188.142l17.624,17.85L254.6,222.924a7,7,0,0,0-.433,8.347A95.113,95.113,0,0,1,267.8,263.626a7,7,0,0,0,6.17,5.488l21.955,2.116v25.458L274.3,298.8a7,7,0,0,0-6.162,5.487,98.1,98.1,0,0,1-13.693,32.442,7,7,0,0,0,.49,8.26l14,16.9-17.907,17.908-16.9-14a7,7,0,0,0-8.347-.433A95.093,95.093,0,0,1,193.424,379a7,7,0,0,0-5.488,6.171l-2.116,21.954H160.371l-2.117-21.954A7,7,0,0,0,152.766,379a98.078,98.078,0,0,1-32.442-13.692,7,7,0,0,0-8.26.49l-16.9,14L77.256,361.887l14-16.9a7,7,0,0,0,.433-8.348A95.091,95.091,0,0,1,78.05,304.284a7,7,0,0,0-6.171-5.488L49.925,296.68Z" style="fill:#0635c9"/><path d="M173.1,365.261a81.306,81.306,0,1,0-81.3-81.306A81.4,81.4,0,0,0,173.1,365.261Zm0-148.612a67.306,67.306,0,1,1-67.3,67.306A67.382,67.382,0,0,1,173.1,216.649Z" style="fill:#0635c9"/><path d="M458.14,189.25a79.707,79.707,0,0,0-1.7-18.342l12.089-8.084a7,7,0,0,0,2.278-9.126l-12.5-23.316a7,7,0,0,0-8.87-3.151l-13.624,5.7a78.275,78.275,0,0,0-14.33-11.6l2.9-14.326a7,7,0,0,0-4.795-8.075l-25.056-7.739a7,7,0,0,0-8.549,4.046l-5.532,13.577a79.908,79.908,0,0,0-18.336,1.694l-8.2-12.289a7,7,0,0,0-9.131-2.285l-23.316,12.5a7,7,0,0,0-3.151,8.87l5.7,13.624a78.343,78.343,0,0,0-11.6,14.33l-14.326-2.9A7,7,0,0,0,290,147.2l-7.628,25.264a7,7,0,0,0,4.06,8.506L300.01,186.5a79.757,79.757,0,0,0,1.694,18.335l-12.288,8.2a7,7,0,0,0-2.286,9.131l12.5,23.316a7,7,0,0,0,8.87,3.15l13.623-5.7a78.418,78.418,0,0,0,14.33,11.6l-2.9,14.325a7,7,0,0,0,4.837,8.088l25.265,7.629a6.995,6.995,0,0,0,8.506-4.06l5.532-13.577a79.887,79.887,0,0,0,18.336-1.693l8.2,12.288a7,7,0,0,0,9.131,2.285l23.316-12.5a7,7,0,0,0,3.151-8.869l-5.7-13.624a78.345,78.345,0,0,0,11.6-14.33l14.326,2.9a7,7,0,0,0,8.088-4.838l7.628-25.264a7,7,0,0,0-4.059-8.506Zm-1.552,29.156L443.6,215.778a7.007,7.007,0,0,0-7.562,3.563,63.769,63.769,0,0,1-14.8,18.3,7,7,0,0,0-1.921,8.031l5.146,12.306-12.11,6.494-7.4-11.1a7,7,0,0,0-7.752-2.845,65.835,65.835,0,0,1-23.54,2.185,7.008,7.008,0,0,0-7.048,4.336l-5,12.275-13.063-3.944,2.627-12.993a7,7,0,0,0-3.563-7.561,63.762,63.762,0,0,1-18.3-14.8,7,7,0,0,0-8.032-1.922l-12.306,5.146-6.493-12.11,11.1-7.4A7,7,0,0,0,316.415,206a65.836,65.836,0,0,1-2.186-23.539,7,7,0,0,0-4.335-7.048l-12.276-5,3.944-13.062,12.994,2.627a7,7,0,0,0,7.561-3.564,63.759,63.759,0,0,1,14.8-18.3,7,7,0,0,0,1.921-8.031l-5.146-12.306,12.11-6.494,7.4,11.1a7,7,0,0,0,7.753,2.844,65.9,65.9,0,0,1,23.539-2.185,6.985,6.985,0,0,0,7.048-4.336l4.987-12.237,12.878,3.978-2.635,13.033a7,7,0,0,0,3.563,7.561,63.765,63.765,0,0,1,18.3,14.8,7,7,0,0,0,8.031,1.922l12.307-5.146,6.5,12.116-10.9,7.288a7,7,0,0,0-2.838,7.748,65.882,65.882,0,0,1,2.186,23.54,7,7,0,0,0,4.335,7.047l12.276,5Z" style="fill:#1ae5be"/><path d="M395.987,131.863a58.508,58.508,0,1,0,34.653,28.364A58.131,58.131,0,0,0,395.987,131.863Zm25.7,68.877a44.508,44.508,0,1,1-3.383-33.9A44.22,44.22,0,0,1,421.684,200.74Z" style="fill:#1ae5be"/></svg>
