<?xml version="1.0"?>
<svg xmlns="http://www.w3.org/2000/svg" id="Layer_1" data-name="Layer 1" viewBox="0 0 512 512" width="512" height="512"><title>Service cogs</title><path d="M42.291,310.005l23.3,2.248a109.7,109.7,0,0,0,11.65,27.708l-14.831,17.9a7,7,0,0,0,.439,9.415L89.772,394.2a7,7,0,0,0,9.414.441l17.945-14.861A111.915,111.915,0,0,0,144.8,391.47l2.248,23.264A6.946,6.946,0,0,0,154.013,421h38.165a6.947,6.947,0,0,0,6.968-6.266l2.248-23.291A109.711,109.711,0,0,0,229.1,379.8l17.9,14.834a7,7,0,0,0,9.415-.437l26.92-26.918a7,7,0,0,0,.442-9.414L268.92,339.919a111.939,111.939,0,0,0,11.692-27.672L303.642,310A7.032,7.032,0,0,0,310,303.038V264.873a7.033,7.033,0,0,0-6.366-6.968l-23.342-2.248a109.76,109.76,0,0,0-11.668-27.708l14.821-17.9a7,7,0,0,0-.412-9.383l-26.581-26.92a7,7,0,0,0-9.446-.473L229.061,188.13a111.953,111.953,0,0,0-27.667-11.69l-2.248-23.219A6.909,6.909,0,0,0,192.178,147H154.013a6.908,6.908,0,0,0-6.968,6.221L144.8,176.49a109.679,109.679,0,0,0-27.708,11.632l-17.9-14.84a7,7,0,0,0-9.415.435l-26.92,26.917a7,7,0,0,0-.442,9.413l14.862,17.945A111.874,111.874,0,0,0,65.58,255.657L42.291,257.9A6.968,6.968,0,0,0,36,264.873v38.165A6.967,6.967,0,0,0,42.291,310.005ZM50,271.23l21.917-2.116a6.979,6.979,0,0,0,6.152-5.488,98.075,98.075,0,0,1,13.683-32.442,7,7,0,0,0-.495-8.26l-14-16.9,17.906-17.907,16.9,14a7,7,0,0,0,8.347.432,95.1,95.1,0,0,1,32.354-13.634,6.878,6.878,0,0,0,5.488-6.063L160.371,161H185.82l2.116,21.847a6.94,6.94,0,0,0,5.488,6.117,98,98,0,0,1,32.443,13.665,7,7,0,0,0,8.259-.5L251,188.149,268.619,206,254.6,222.925a7,7,0,0,0-.433,8.347A95.108,95.108,0,0,1,267.8,263.626a7.042,7.042,0,0,0,6.208,5.488L296,271.23v25.458L274.34,298.8a7.022,7.022,0,0,0-6.181,5.487,98.125,98.125,0,0,1-13.7,32.442,7,7,0,0,0,.486,8.26l13.994,16.9-17.909,17.908-16.9-14a7,7,0,0,0-8.348-.433A95.085,95.085,0,0,1,193.424,379a6.93,6.93,0,0,0-5.488,6.108L185.82,407H160.371l-2.117-21.892a6.964,6.964,0,0,0-5.488-6.139,98.059,98.059,0,0,1-32.442-13.677,7,7,0,0,0-8.26.5l-16.9,14L77.256,361.885l14-16.9a7,7,0,0,0,.433-8.347A95.1,95.1,0,0,1,78.05,304.284a6.957,6.957,0,0,0-6.133-5.488L50,296.68Z"/><path d="M173.1,365.261a81.306,81.306,0,1,0-81.3-81.306A81.4,81.4,0,0,0,173.1,365.261Zm0-148.612a67.306,67.306,0,1,1-67.3,67.306A67.382,67.382,0,0,1,173.1,216.649Z"/><path d="M458.14,189.25a79.707,79.707,0,0,0-1.7-18.342l12.089-8.084a7,7,0,0,0,2.278-9.126l-12.5-23.316a7,7,0,0,0-8.87-3.151l-13.624,5.7a78.275,78.275,0,0,0-14.33-11.6l2.9-14.326a7,7,0,0,0-4.795-8.075l-25.056-7.739a7,7,0,0,0-8.549,4.046l-5.532,13.577a79.908,79.908,0,0,0-18.336,1.694l-8.2-12.289a7,7,0,0,0-9.131-2.285l-23.316,12.5a7,7,0,0,0-3.151,8.87l5.7,13.624a78.343,78.343,0,0,0-11.6,14.33l-14.326-2.9A7,7,0,0,0,290,147.2l-7.628,25.264a7,7,0,0,0,4.06,8.506L300.01,186.5a79.757,79.757,0,0,0,1.694,18.335l-12.288,8.2a7,7,0,0,0-2.286,9.131l12.5,23.316a7,7,0,0,0,8.87,3.15l13.623-5.7a78.418,78.418,0,0,0,14.33,11.6l-2.9,14.325a7,7,0,0,0,4.837,8.088l25.265,7.629a6.995,6.995,0,0,0,8.506-4.06l5.532-13.577a79.887,79.887,0,0,0,18.336-1.693l8.2,12.288a7,7,0,0,0,9.131,2.285l23.316-12.5a7,7,0,0,0,3.151-8.869l-5.7-13.624a78.345,78.345,0,0,0,11.6-14.33l14.326,2.9a7,7,0,0,0,8.088-4.838l7.628-25.264a7,7,0,0,0-4.059-8.506Zm-1.552,29.156L443.6,215.778a7.007,7.007,0,0,0-7.562,3.563,63.769,63.769,0,0,1-14.8,18.3,7,7,0,0,0-1.921,8.031l5.146,12.306-12.11,6.494-7.4-11.1a7,7,0,0,0-7.752-2.845,65.835,65.835,0,0,1-23.54,2.185,7.008,7.008,0,0,0-7.048,4.336l-5,12.275-13.063-3.944,2.627-12.993a7,7,0,0,0-3.563-7.561,63.762,63.762,0,0,1-18.3-14.8,7,7,0,0,0-8.032-1.922l-12.306,5.146-6.493-12.11,11.1-7.4A7,7,0,0,0,316.415,206a65.836,65.836,0,0,1-2.186-23.539,7,7,0,0,0-4.335-7.048l-12.276-5,3.944-13.062,12.994,2.627a7,7,0,0,0,7.561-3.564,63.759,63.759,0,0,1,14.8-18.3,7,7,0,0,0,1.921-8.031l-5.146-12.306,12.11-6.494,7.4,11.1a7,7,0,0,0,7.753,2.844,65.9,65.9,0,0,1,23.539-2.185,6.985,6.985,0,0,0,7.048-4.336l4.987-12.237,12.878,3.978-2.635,13.033a7,7,0,0,0,3.563,7.561,63.765,63.765,0,0,1,18.3,14.8,7,7,0,0,0,8.031,1.922l12.307-5.146,6.5,12.116-10.9,7.288a7,7,0,0,0-2.838,7.748,65.882,65.882,0,0,1,2.186,23.54,7,7,0,0,0,4.335,7.047l12.276,5Z"/><path d="M395.987,131.863a58.508,58.508,0,1,0,34.653,28.364A58.131,58.131,0,0,0,395.987,131.863Zm25.7,68.877a44.508,44.508,0,1,1-3.383-33.9A44.22,44.22,0,0,1,421.684,200.74Z"/></svg>
